# xmcd
#
# Track frame offsets:
#	150
#	4677
#	22423
#	39313
#	55513
#	76911
#	78972
#	94173
#	113835
#	114808
#	133672
#	150624
#	154364
#	169533
#	187522
#
# Disc length: 2720 seconds
#
# Revision: 0
# Processed by: cddbd v1.5.2PL0 Copyright (c) Steve Scherf et al.
# Submitted via: audiograbber 1.83.01
#
DISCID=a30a9e0f
DTITLE=Rednex - Rednex - ...Farm Out!
DYEAR=2000
DGENRE=Pop
TTITLE0=Rednex - Intro - Fresh Pigs And More
TTITLE1=Rednex - The Spirit Of The Hawk F.A.F. Radio Mix
TTITLE2=Rednex - The Way I Mate
TTITLE3=Rednex - The Devil Went Down To Georgia
TTITLE4=Rednex - Hold Me For A While
TTITLE5=Rednex - Boring...
TTITLE6=Rednex - Where You Gonna Go
TTITLE7=Rednex - Maggie Moonshine - Extended Version
TTITLE8=Rednex - Animal In The Rain
TTITLE9=Rednex - Ranger Jack
TTITLE10=Rednex - Get The Truck Loaded
TTITLE11=Rednex - Message From Our Sponsors
TTITLE12=Rednex - Is He Alive
TTITLE13=Rednex - McKenzie Brothers II (Continued...)
TTITLE14=Rednex - Bottleneck Bob 2000
EXTD=
EXTT0=
EXTT1=
EXTT2=
EXTT3=
EXTT4=
EXTT5=
EXTT6=
EXTT7=
EXTT8=
EXTT9=
EXTT10=
EXTT11=
EXTT12=
EXTT13=
EXTT14=
PLAYORDER=
